<svg width="24" height="24" viewBox="0 0 24 24" fill="none" xmlns="http://www.w3.org/2000/svg">
<path d="M10.8867 3.36667C12.3308 3.36535 13.7428 3.79236 14.9442 4.5937C16.1455 5.39503 17.0822 6.53467 17.6358 7.86845C18.1893 9.20224 18.3348 10.6702 18.0539 12.0867C17.773 13.5032 17.0783 14.8046 16.0576 15.8262C15.0369 16.8478 13.7362 17.5437 12.32 17.8259C10.9037 18.1081 9.43561 17.9639 8.10132 17.4116C6.76703 16.8593 5.62653 15.9236 4.82411 14.723C4.02168 13.5224 3.59337 12.1108 3.59337 10.6667C3.60212 8.73444 4.37313 6.88374 5.73881 5.51681C7.10449 4.14988 8.95448 3.37719 10.8867 3.36667ZM10.8867 2C9.1726 2 7.49699 2.50829 6.07176 3.4606C4.64653 4.4129 3.53571 5.76645 2.87975 7.35008C2.22379 8.9337 2.05216 10.6763 2.38656 12.3574C2.72097 14.0386 3.54639 15.5829 4.75844 16.7949C5.9705 18.007 7.51475 18.8324 9.19592 19.1668C10.8771 19.5012 12.6197 19.3296 14.2033 18.6736C15.7869 18.0177 17.1405 16.9068 18.0928 15.4816C19.0451 14.0564 19.5534 12.3808 19.5534 10.6667C19.5534 8.36812 18.6403 6.16372 17.015 4.53841C15.3896 2.91309 13.1852 2 10.8867 2Z" fill="white"/>
<path d="M23.3333 22.1933L18.42 17.2466L17.4733 18.1866L22.3867 23.1333C22.4484 23.1955 22.5217 23.2449 22.6026 23.2787C22.6834 23.3125 22.77 23.33 22.8576 23.3303C22.9452 23.3307 23.032 23.3137 23.1131 23.2805C23.1941 23.2472 23.2678 23.1984 23.33 23.1366C23.3922 23.0749 23.4415 23.0016 23.4754 22.9208C23.5092 22.8399 23.5267 22.7533 23.527 22.6657C23.5273 22.5781 23.5104 22.4913 23.4772 22.4102C23.4439 22.3292 23.3951 22.2555 23.3333 22.1933Z" fill="white"/>
</svg>
