<svg viewBox="0 0 23 20" fill="none" xmlns="http://www.w3.org/2000/svg">
    <path fill-rule="evenodd" clip-rule="evenodd"
          d="M11.1569 19.5804C11.0243 19.7134 10.8666 19.8189 10.6931 19.8909C10.5196 19.9629 10.3336 20 10.1457 20C9.95786 20 9.77184 19.9629 9.59832 19.8909C9.4248 19.8189 9.26719 19.7134 9.13452 19.5804L0.564955 11.0108C0.431946 10.8782 0.326419 10.7205 0.254416 10.547C0.182413 10.3735 0.14535 10.1875 0.14535 9.99962C0.14535 9.81176 0.182413 9.62574 0.254416 9.45222C0.326419 9.2787 0.431946 9.12109 0.564955 8.98842L9.13452 0.418854C9.40271 0.150665 9.76645 -1.58243e-07 10.1457 -1.25086e-07C10.525 -9.19282e-08 10.8887 0.150665 11.1569 0.418854C11.4251 0.687044 11.5758 1.05079 11.5758 1.43006C11.5758 1.80934 11.4251 2.17308 11.1569 2.44127L3.59572 9.99962L11.1569 17.558C11.2899 17.6907 11.3955 17.8483 11.4675 18.0218C11.5395 18.1953 11.5765 18.3813 11.5765 18.5692C11.5765 18.7571 11.5395 18.9431 11.4675 19.1166C11.3955 19.2901 11.2899 19.4477 11.1569 19.5804Z"
    />
    <path fill-rule="evenodd" clip-rule="evenodd"
          d="M23 9.9996C23 10.3784 22.8495 10.7417 22.5817 11.0095C22.3138 11.2774 21.9505 11.4279 21.5717 11.4279L3.00436 11.4279C2.62556 11.4279 2.26227 11.2774 1.99442 11.0095C1.72657 10.7417 1.5761 10.3784 1.5761 9.99959C1.5761 9.6208 1.72657 9.25751 1.99442 8.98966C2.26227 8.72181 2.62556 8.57133 3.00436 8.57133L21.5717 8.57134C21.9505 8.57134 22.3138 8.72181 22.5817 8.98966C22.8495 9.25751 23 9.6208 23 9.9996Z"
    />
</svg>
