
<svg version="1.1"
	 xmlns="http://www.w3.org/2000/svg" viewBox="0 -6.88 512 512"
	 xml:space="preserve">
<path  d="M409.058,471.449H34.088V101.063H259.41l34.088-33.671H34.088c-9.041,0-17.711,3.547-24.104,9.862
	C3.591,83.568,0,92.133,0,101.063v370.386c0,8.93,3.591,17.496,9.984,23.811c6.393,6.313,15.063,9.86,24.104,9.86h374.969
	c9.04,0,17.711-3.547,24.103-9.86c6.395-6.314,9.985-14.881,9.985-23.811V218.913l-34.088,33.673V471.449z"/>
<path  d="M503.307,64.702L445.868,7.965c-2.552-2.525-5.579-4.527-8.912-5.895C433.621,0.704,430.046,0,426.438,0
	c-3.61,0-7.184,0.704-10.518,2.071c-3.335,1.368-6.364,3.37-8.914,5.895L173.333,240.13l-18.919,80.981
	c-0.806,3.926-0.721,7.977,0.248,11.868c0.97,3.889,2.8,7.516,5.358,10.624c2.56,3.107,5.784,5.616,9.441,7.345
	c3.657,1.729,7.657,2.636,11.712,2.656c2.096,0.227,4.21,0.227,6.307,0l82.664-18.014l233.162-232.503
	c2.556-2.518,4.582-5.51,5.969-8.804c1.383-3.293,2.095-6.824,2.095-10.389c0-3.566-0.712-7.098-2.095-10.391
	C507.889,70.212,505.862,67.22,503.307,64.702z M252.418,304.443l-62.382,13.637l14.488-61.114L380.42,82.044l48.063,47.476
	L252.418,304.443z M447.741,110.496l-48.063-47.477l26.416-26.601l48.406,47.814L447.741,110.496z"/>
</svg>
