<svg viewBox="0 0 19 24" fill="none" xmlns="http://www.w3.org/2000/svg">
    <path d="M8.25 9V10.375C6.975 10.5813 6 11.5438 6 12.7812C6 14.1562 7.125 15.1875 8.625 15.1875H9.375C9.975 15.1875 10.5 15.6687 10.5 16.2187C10.5 16.7687 9.975 17.25 9.375 17.25H6.75V18.625H8.25V20H9.75V18.625C11.025 18.4187 12 17.4562 12 16.2187C12 14.8437 10.875 13.8125 9.375 13.8125H8.625C8.025 13.8125 7.5 13.3313 7.5 12.7812C7.5 12.2313 8.025 11.75 8.625 11.75H11.25V10.375H9.75V9H8.25Z"
    />
    <path d="M4 4.09229V5.99998H8.5V4.09229H4Z"/>
    <path d="M0 0V24H19V6.09231L18.715 5.81538L13.015 0.276923L12.73 0H0ZM1.9 1.84615H11.4V7.38462H17.1V22.1538H1.9V1.84615ZM13.3 3.13846L15.77 5.53846H13.3V3.13846Z"
    />
</svg>
