<svg viewBox="0 0 19 24" fill="none" xmlns="http://www.w3.org/2000/svg">
    <path d="M0 24L2.09815e-06 0L19 1.66103e-06L19 17.9077L18.715 18.1846L13.015 23.7231L12.73 24L0 24ZM1.9 22.1538L11.4 22.1538L11.4 16.6154L17.1 16.6154L17.1 1.84615L1.9 1.84615L1.9 22.1538ZM13.3 20.8615L15.77 18.4615L13.3 18.4615L13.3 20.8615ZM3.8 14.7692L3.8 12.9231L15.2 12.9231L15.2 14.7692L3.8 14.7692ZM3.8 10.1538L3.8 8.30769L10.45 8.30769L10.45 10.1538L3.8 10.1538ZM12.35 10.1538L12.35 8.30769L15.2 8.30769L15.2 10.1538L12.35 10.1538ZM3.8 6.46154L3.8 4.61539L10.45 4.61539L10.45 6.46154L3.8 6.46154ZM12.35 6.46154L12.35 4.61539L15.2 4.61539L15.2 6.46154L12.35 6.46154Z"
    />
</svg>
