<svg width="25" height="20" viewBox="0 0 25 20" fill="none" xmlns="http://www.w3.org/2000/svg">
    <path fill-rule="evenodd" clip-rule="evenodd"
          d="M21.0859 0.669074C21.5145 0.242024 22.0931 0.00168241 22.6966 8.79919e-06C23.3002 -0.00166482 23.8801 0.235464 24.3111 0.66013C24.742 1.0848 24.9894 1.66288 24.9997 2.26939C25.0099 2.87591 24.7823 3.46213 24.366 3.90131L12.1397 19.2621C11.9296 19.4896 11.6759 19.6721 11.394 19.7989C11.1121 19.9256 10.8076 19.9939 10.4988 19.9996C10.1901 20.0054 9.8833 19.9485 9.59689 19.8323C9.31049 19.7162 9.05032 19.5432 8.83196 19.3237L0.731094 11.1784C0.505413 10.9671 0.3244 10.7122 0.198854 10.429C0.0733075 10.1458 0.00579925 9.84008 0.000357479 9.53008C-0.00508429 9.22009 0.051652 8.91216 0.16718 8.62469C0.282709 8.33721 0.454663 8.07606 0.672786 7.85683C0.890908 7.63759 1.15073 7.46476 1.43675 7.34865C1.72277 7.23253 2.02913 7.1755 2.33755 7.18097C2.64598 7.18644 2.95015 7.25429 3.23191 7.38048C3.51368 7.50667 3.76727 7.6886 3.97757 7.91543L10.3909 14.3584L21.0277 0.736798C21.0466 0.712952 21.0671 0.690332 21.0889 0.669074H21.0859Z"/>
</svg>
