<svg viewBox="0 0 32 32" fill="none" xmlns="http://www.w3.org/2000/svg">
    <path fill-rule="evenodd" clip-rule="evenodd"
          d="M31.4127 0.589608C31.5989 0.775339 31.7466 0.99598 31.8474 1.23889C31.9482 1.48181 32.0001 1.74222 32.0001 2.00521C32.0001 2.26821 31.9482 2.52862 31.8474 2.77153C31.7466 3.01445 31.5989 3.23509 31.4127 3.42082L3.42047 31.413C3.04503 31.7884 2.53582 31.9994 2.00487 31.9994C1.47391 31.9994 0.964703 31.7884 0.589261 31.413C0.21382 31.0376 0.00289917 30.5283 0.00289917 29.9974C0.00289917 29.4664 0.21382 28.9572 0.589261 28.5818L28.5814 0.589608C28.7672 0.403407 28.9878 0.255677 29.2307 0.154879C29.4736 0.0540812 29.7341 0.00219727 29.997 0.00219727C30.26 0.00219727 30.5205 0.0540812 30.7634 0.154879C31.0063 0.255677 31.2269 0.403407 31.4127 0.589608V0.589608Z"
    />
    <path fill-rule="evenodd" clip-rule="evenodd"
          d="M0.589211 0.589608C0.403011 0.775339 0.25528 0.99598 0.154482 1.23889C0.0536845 1.48181 0.00180054 1.74222 0.00180054 2.00521C0.00180054 2.26821 0.0536845 2.52862 0.154482 2.77153C0.25528 3.01445 0.403011 3.23509 0.589211 3.42082L28.5814 31.413C28.9568 31.7884 29.466 31.9994 29.997 31.9994C30.528 31.9994 31.0372 31.7884 31.4126 31.413C31.788 31.0376 31.999 30.5283 31.999 29.9974C31.999 29.4664 31.788 28.9572 31.4126 28.5818L3.42042 0.589608C3.23469 0.403407 3.01405 0.255677 2.77114 0.154879C2.52822 0.0540813 2.26781 0.00219727 2.00482 0.00219727C1.74182 0.00219727 1.48141 0.0540813 1.2385 0.154879C0.995583 0.255677 0.774942 0.403407 0.589211 0.589608Z"
    />
</svg>
